<mxfile host="Electron" modified="2023-11-28T18:38:01.036Z" agent="Mozilla/5.0 (X11; Linux x86_64) AppleWebKit/537.36 (KHTML, like Gecko) draw.io/22.1.2 Chrome/114.0.5735.289 Electron/25.9.4 Safari/537.36" etag="a2ROxYiXU1Yz_FaeqWba" version="22.1.2" type="device">
  <diagram name="Page-1" id="CLTAs8Cq8VpJcCzs1Yes">
    <mxGraphModel dx="1187" dy="665" grid="1" gridSize="10" guides="1" tooltips="1" connect="1" arrows="1" fold="1" page="1" pageScale="1" pageWidth="1400" pageHeight="850" math="0" shadow="0">
      <root>
        <mxCell id="0" />
        <mxCell id="1" parent="0" />
        <mxCell id="RUgG04_Uxq4le6jQPdLN-8" style="edgeStyle=orthogonalEdgeStyle;rounded=0;orthogonalLoop=1;jettySize=auto;html=1;exitX=0.5;exitY=0;exitDx=0;exitDy=0;exitPerimeter=0;entryX=0.5;entryY=1;entryDx=0;entryDy=0;" edge="1" parent="1" source="RUgG04_Uxq4le6jQPdLN-1" target="RUgG04_Uxq4le6jQPdLN-6">
          <mxGeometry relative="1" as="geometry" />
        </mxCell>
        <mxCell id="RUgG04_Uxq4le6jQPdLN-1" value="Data" style="shape=cylinder3;whiteSpace=wrap;html=1;boundedLbl=1;backgroundOutline=1;size=15;fillColor=#fad7ac;strokeColor=#b46504;" vertex="1" parent="1">
          <mxGeometry x="470" y="290" width="60" height="80" as="geometry" />
        </mxCell>
        <mxCell id="RUgG04_Uxq4le6jQPdLN-5" style="edgeStyle=orthogonalEdgeStyle;rounded=0;orthogonalLoop=1;jettySize=auto;html=1;exitX=1;exitY=0.5;exitDx=0;exitDy=0;entryX=0;entryY=0.5;entryDx=0;entryDy=0;" edge="1" parent="1" source="RUgG04_Uxq4le6jQPdLN-2" target="RUgG04_Uxq4le6jQPdLN-4">
          <mxGeometry relative="1" as="geometry" />
        </mxCell>
        <mxCell id="RUgG04_Uxq4le6jQPdLN-2" value="Input" style="ellipse;whiteSpace=wrap;html=1;aspect=fixed;fillColor=#60a917;fontColor=#ffffff;strokeColor=#2D7600;" vertex="1" parent="1">
          <mxGeometry x="170" y="190" width="80" height="80" as="geometry" />
        </mxCell>
        <mxCell id="RUgG04_Uxq4le6jQPdLN-3" value="Write Stdout" style="ellipse;whiteSpace=wrap;html=1;aspect=fixed;fillColor=#d80073;fontColor=#ffffff;strokeColor=#A50040;" vertex="1" parent="1">
          <mxGeometry x="740" y="190" width="80" height="80" as="geometry" />
        </mxCell>
        <mxCell id="RUgG04_Uxq4le6jQPdLN-7" style="edgeStyle=orthogonalEdgeStyle;rounded=0;orthogonalLoop=1;jettySize=auto;html=1;exitX=1;exitY=0.5;exitDx=0;exitDy=0;entryX=0;entryY=0.5;entryDx=0;entryDy=0;" edge="1" parent="1" source="RUgG04_Uxq4le6jQPdLN-4" target="RUgG04_Uxq4le6jQPdLN-6">
          <mxGeometry relative="1" as="geometry" />
        </mxCell>
        <mxCell id="RUgG04_Uxq4le6jQPdLN-4" value="Parse Units" style="rounded=1;whiteSpace=wrap;html=1;fillColor=#d0cee2;strokeColor=#56517e;" vertex="1" parent="1">
          <mxGeometry x="280" y="200" width="120" height="60" as="geometry" />
        </mxCell>
        <mxCell id="RUgG04_Uxq4le6jQPdLN-10" style="edgeStyle=orthogonalEdgeStyle;rounded=0;orthogonalLoop=1;jettySize=auto;html=1;exitX=1;exitY=0.5;exitDx=0;exitDy=0;" edge="1" parent="1" source="RUgG04_Uxq4le6jQPdLN-6" target="RUgG04_Uxq4le6jQPdLN-9">
          <mxGeometry relative="1" as="geometry" />
        </mxCell>
        <mxCell id="RUgG04_Uxq4le6jQPdLN-6" value="Read Data" style="rounded=1;whiteSpace=wrap;html=1;fillColor=#d0cee2;strokeColor=#56517e;" vertex="1" parent="1">
          <mxGeometry x="440" y="200" width="120" height="60" as="geometry" />
        </mxCell>
        <mxCell id="RUgG04_Uxq4le6jQPdLN-11" style="edgeStyle=orthogonalEdgeStyle;rounded=0;orthogonalLoop=1;jettySize=auto;html=1;exitX=1;exitY=0.5;exitDx=0;exitDy=0;entryX=0;entryY=0.5;entryDx=0;entryDy=0;" edge="1" parent="1" source="RUgG04_Uxq4le6jQPdLN-9" target="RUgG04_Uxq4le6jQPdLN-3">
          <mxGeometry relative="1" as="geometry" />
        </mxCell>
        <mxCell id="RUgG04_Uxq4le6jQPdLN-9" value="Render Data" style="rounded=1;whiteSpace=wrap;html=1;fillColor=#d0cee2;strokeColor=#56517e;" vertex="1" parent="1">
          <mxGeometry x="590" y="200" width="120" height="60" as="geometry" />
        </mxCell>
      </root>
    </mxGraphModel>
  </diagram>
</mxfile>
